<?xml version="1.0" encoding="UTF-8" standalone="no"?>
<!-- Generator: Adobe Illustrator 28.0.0, SVG Export Plug-In . SVG Version: 6.00 Build 0)  -->

<svg
   version="1.0"
   id="Camada_1"
   x="0px"
   y="0px"
   viewBox="0 0 278 68"
   enable-background="new 0 0 278 68"
   xml:space="preserve"
   sodipodi:docname="Logo.svg"
   inkscape:version="1.3.2 (091e20e, 2023-11-25, custom)"
   inkscape:export-filename="Logo-new.png"
   inkscape:export-xdpi="96"
   inkscape:export-ydpi="96"
   xmlns:inkscape="http://www.inkscape.org/namespaces/inkscape"
   xmlns:sodipodi="http://sodipodi.sourceforge.net/DTD/sodipodi-0.dtd"
   xmlns:xlink="http://www.w3.org/1999/xlink"
   xmlns="http://www.w3.org/2000/svg"
   xmlns:svg="http://www.w3.org/2000/svg"><defs
   id="defs23"><linearGradient
     id="linearGradient58"
     inkscape:collect="always"><stop
       style="stop-color:#d47afb;stop-opacity:1;"
       offset="0"
       id="stop58" /><stop
       style="stop-color:#fbf401;stop-opacity:1;"
       offset="0.33664259"
       id="stop61" /><stop
       style="stop-color:#80ee7e;stop-opacity:1;"
       offset="0.61597478"
       id="stop1" /><stop
       style="stop-color:#05e9fb;stop-opacity:1;"
       offset="1"
       id="stop59" /></linearGradient><linearGradient
     id="linearGradient29"
     inkscape:collect="always"><stop
       style="stop-color:#425cf4;stop-opacity:1;"
       offset="0"
       id="stop29" /><stop
       style="stop-color:#ffd500;stop-opacity:1;"
       offset="1"
       id="stop30" /></linearGradient><linearGradient
     inkscape:collect="always"
     xlink:href="#linearGradient29"
     id="linearGradient30"
     x1="2.2000008"
     y1="34"
     x2="66.200005"
     y2="34"
     gradientUnits="userSpaceOnUse"
     spreadMethod="reflect"
     gradientTransform="matrix(0.83007511,0,0,0.83007511,5.0852567,5.7774467)" /><linearGradient
     inkscape:collect="always"
     xlink:href="#linearGradient58"
     id="linearGradient59"
     x1="67.243603"
     y1="31.476667"
     x2="269.49234"
     y2="31.476667"
     gradientUnits="userSpaceOnUse"
     gradientTransform="translate(-4.3171653,0.17677689)" /></defs><sodipodi:namedview
   id="namedview23"
   pagecolor="#505050"
   bordercolor="#eeeeee"
   borderopacity="1"
   inkscape:showpageshadow="0"
   inkscape:pageopacity="0"
   inkscape:pagecheckerboard="0"
   inkscape:deskcolor="#505050"
   inkscape:zoom="2.8284271"
   inkscape:cx="141.0678"
   inkscape:cy="21.036427"
   inkscape:window-width="1920"
   inkscape:window-height="1009"
   inkscape:window-x="-8"
   inkscape:window-y="-8"
   inkscape:window-maximized="1"
   inkscape:current-layer="Camada_1" />
























<rect
   style="fill:#ffffff;fill-opacity:1;stroke-width:0.784293;stroke-linecap:round;stroke-linejoin:round;stroke-dasharray:none;paint-order:stroke fill markers"
   id="rect7"
   width="255.97264"
   height="51.265244"
   x="16.542484"
   y="7.9549513"
   ry="18.512447" /><circle
   fill="#1F71B6"
   cx="33.473824"
   cy="34"
   r="26.562403"
   id="circle18"
   style="fill:#425cf4;fill-opacity:1;stroke:url(#linearGradient30);stroke-width:1.715;stroke-dasharray:none" /><path
   fill="#F9CB1A"
   d="m 13.138644,33.534822 c 1.173552,1.964982 2.567943,5.499564 4.74048,5.730523 C 22.915538,32.384169 29.646506,27.364611 38.57137,27.669479 23.205426,36.760795 20.296604,48.566186 27.228756,60.013602 6.1480307,55.117325 -2.3638765,28.302553 14.233092,13.285724 c 1.195962,0.149502 -5.5731753,8.797663 -1.094448,20.249098 z"
   id="path20"
   style="fill:#fbbc05;fill-opacity:1"
   sodipodi:nodetypes="cccccc" /><path
   d="M 62.926438,43.554894 V 21.774463 h 8.961091 q 2.893686,0 4.947269,0.933447 2.084698,0.933447 3.204835,2.675882 1.120136,1.742434 1.120136,4.138281 0,2.395848 -1.120136,4.138282 -1.120137,1.742435 -3.204835,2.675882 -2.053583,0.933447 -4.947269,0.933447 H 65.16671 l 1.804665,-1.898009 v 8.183219 z m 4.044937,-7.747611 -1.804665,-1.960238 h 6.53413 q 2.675881,0 4.013822,-1.120137 1.369055,-1.151251 1.369055,-3.204835 0,-2.084698 -1.369055,-3.204834 -1.337941,-1.120137 -4.013822,-1.120137 h -6.53413 l 1.804665,-1.991353 z m 16.090503,7.747611 V 26.939537 h 3.702673 v 4.57389 l -0.435608,-1.337941 q 0.746757,-1.680204 2.333617,-2.551421 1.617975,-0.871218 4.013823,-0.871218 v 3.702673 q -0.24892,-0.06223 -0.466724,-0.06223 -0.217804,-0.03111 -0.435609,-0.03111 -2.209157,0 -3.515983,1.306826 -1.306826,1.275711 -1.306826,3.827132 v 8.05876 z m 18.597732,0.217804 q -2.551415,0 -4.542765,-1.089022 -1.99136,-1.120136 -3.14261,-3.04926 -1.151251,-1.929124 -1.151251,-4.387201 0,-2.489192 1.151251,-4.387201 1.15125,-1.929124 3.14261,-3.018145 1.99135,-1.089022 4.542765,-1.089022 2.58254,0 4.57389,1.089022 2.02247,1.089021 3.14261,2.98703 1.15125,1.898009 1.15125,4.418316 0,2.458077 -1.15125,4.387201 -1.12014,1.929124 -3.14261,3.04926 -1.99135,1.089022 -4.57389,1.089022 z m 0,-3.329294 q 1.43129,0 2.55142,-0.622298 1.12014,-0.622298 1.74244,-1.804665 0.65341,-1.182366 0.65341,-2.769226 0,-1.617975 -0.65341,-2.769226 -0.6223,-1.182366 -1.74244,-1.804664 -1.12013,-0.622298 -2.5203,-0.622298 -1.43129,0 -2.551425,0.622298 -1.08902,0.622298 -1.74243,1.804664 -0.65341,1.151251 -0.65341,2.769226 0,1.58686 0.65341,2.769226 0.65341,1.182367 1.74243,1.804665 1.120135,0.622298 2.520305,0.622298 z m 11.5105,3.11149 V 26.00609 q 0,-2.613652 1.52463,-4.169397 1.55575,-1.58686 4.41832,-1.58686 1.02679,0 1.92912,0.217804 0.93345,0.217805 1.55575,0.684528 l -1.05791,2.924801 q -0.43561,-0.342264 -0.99568,-0.497839 -0.56007,-0.186689 -1.15125,-0.186689 -1.21348,0 -1.83578,0.684528 -0.6223,0.653413 -0.6223,1.991353 v 1.866895 l 0.12446,1.742434 V 43.554894 Z M 110.432,30.175486 v -3.11149 h 11.0769 v 3.11149 z m 13.81502,13.379408 V 26.939537 h 3.88936 v 16.615357 z m 1.96023,-19.353469 q -1.08902,0 -1.80466,-0.684527 -0.68453,-0.684528 -0.68453,-1.64909 0,-0.995677 0.68453,-1.64909 0.71564,-0.684528 1.80466,-0.684528 1.08903,0 1.77355,0.653413 0.71565,0.622298 0.71565,1.58686 0,1.026792 -0.68453,1.742435 -0.68453,0.684527 -1.80467,0.684527 z m 8.92595,19.571273 q -2.0847,0 -4.01382,-0.528953 -1.89801,-0.560069 -3.01815,-1.337941 l 1.49352,-2.955916 q 1.12014,0.715643 2.67588,1.182367 1.55575,0.466723 3.11149,0.466723 1.83578,0 2.64477,-0.497838 0.8401,-0.497839 0.8401,-1.337941 0,-0.684528 -0.56007,-1.026792 -0.56007,-0.373379 -1.4624,-0.560068 -0.90233,-0.186689 -2.02247,-0.342264 -1.08902,-0.155574 -2.20915,-0.404494 -1.08903,-0.280034 -1.99136,-0.777872 -0.90233,-0.528953 -1.4624,-1.400171 -0.56007,-0.871217 -0.56007,-2.302502 0,-1.58686 0.90234,-2.738112 0.90233,-1.182366 2.5203,-1.804664 1.64909,-0.653413 3.88936,-0.653413 1.68021,0 3.39153,0.373379 1.71132,0.373379 2.83145,1.057907 l -1.49351,2.955915 q -1.18237,-0.715642 -2.39585,-0.964562 -1.18236,-0.280034 -2.36473,-0.280034 -1.77355,0 -2.64477,0.528954 -0.8401,0.528953 -0.8401,1.33794 0,0.746758 0.56007,1.120137 0.56007,0.373379 1.4624,0.591183 0.90233,0.217804 1.99135,0.373379 1.12014,0.124459 2.20916,0.404493 1.08902,0.280034 1.99135,0.777873 0.93345,0.466723 1.49352,1.337941 0.56007,0.871217 0.56007,2.271387 0,1.555745 -0.93345,2.706997 -0.90233,1.151251 -2.58254,1.804664 -1.6802,0.622298 -4.01382,0.622298 z m 14.40416,0 q -2.0847,0 -4.01382,-0.528953 -1.89801,-0.560069 -3.01815,-1.337941 l 1.49352,-2.955916 q 1.12014,0.715643 2.67588,1.182367 1.55575,0.466723 3.11149,0.466723 1.83578,0 2.64477,-0.497838 0.8401,-0.497839 0.8401,-1.337941 0,-0.684528 -0.56007,-1.026792 -0.56007,-0.373379 -1.4624,-0.560068 -0.90233,-0.186689 -2.02247,-0.342264 -1.08902,-0.155574 -2.20916,-0.404494 -1.08902,-0.280034 -1.99135,-0.777872 -0.90233,-0.528953 -1.4624,-1.400171 -0.56007,-0.871217 -0.56007,-2.302502 0,-1.58686 0.90233,-2.738112 0.90234,-1.182366 2.52031,-1.804664 1.64909,-0.653413 3.88936,-0.653413 1.68021,0 3.39153,0.373379 1.71132,0.373379 2.83145,1.057907 l -1.49351,2.955915 q -1.18237,-0.715642 -2.39585,-0.964562 -1.18236,-0.280034 -2.36473,-0.280034 -1.77355,0 -2.64477,0.528954 -0.8401,0.528953 -0.8401,1.33794 0,0.746758 0.56007,1.120137 0.56007,0.373379 1.4624,0.591183 0.90233,0.217804 1.99135,0.373379 1.12014,0.124459 2.20916,0.404493 1.08902,0.280034 1.99135,0.777873 0.93345,0.466723 1.49352,1.337941 0.56007,0.871217 0.56007,2.271387 0,1.555745 -0.93345,2.706997 -0.90233,1.151251 -2.58254,1.804664 -1.6802,0.622298 -4.01382,0.622298 z m 9.2702,-0.217804 V 26.939537 h 3.88936 v 16.615357 z m 1.96023,-19.353469 q -1.08902,0 -1.80466,-0.684527 -0.68453,-0.684528 -0.68453,-1.64909 0,-0.995677 0.68453,-1.64909 0.71564,-0.684528 1.80466,-0.684528 1.08903,0 1.77355,0.653413 0.71565,0.622298 0.71565,1.58686 0,1.026792 -0.68453,1.742435 -0.68453,0.684527 -1.80467,0.684527 z m 12.87953,19.571273 q -2.55142,0 -4.54277,-1.089022 -1.99136,-1.120136 -3.14261,-3.04926 -1.15125,-1.929124 -1.15125,-4.387201 0,-2.489192 1.15125,-4.387201 1.15125,-1.929124 3.14261,-3.018145 1.99135,-1.089022 4.54277,-1.089022 2.58254,0 4.57389,1.089022 2.02247,1.089021 3.14261,2.98703 1.15125,1.898009 1.15125,4.418316 0,2.458077 -1.15125,4.387201 -1.12014,1.929124 -3.14261,3.04926 -1.99135,1.089022 -4.57389,1.089022 z m 0,-3.329294 q 1.43129,0 2.55143,-0.622298 1.12013,-0.622298 1.74243,-1.804665 0.65341,-1.182366 0.65341,-2.769226 0,-1.617975 -0.65341,-2.769226 -0.6223,-1.182366 -1.74243,-1.804664 -1.12014,-0.622298 -2.52031,-0.622298 -1.43129,0 -2.55142,0.622298 -1.08902,0.622298 -1.74244,1.804664 -0.65341,1.151251 -0.65341,2.769226 0,1.58686 0.65341,2.769226 0.65342,1.182367 1.74244,1.804665 1.12013,0.622298 2.5203,0.622298 z m 20.40936,-13.690557 q 1.99136,0 3.5471,0.777873 1.58686,0.777872 2.48919,2.395847 0.90233,1.58686 0.90233,4.107167 v 9.52116 h -3.88936 v -9.023322 q 0,-2.209158 -1.0579,-3.298179 -1.0268,-1.089022 -2.89369,-1.089022 -1.36906,0 -2.42696,0.560069 -1.05791,0.560068 -1.64909,1.680204 -0.56007,1.089022 -0.56007,2.769226 v 8.401024 h -3.88936 V 26.939537 h 3.70267 v 4.480545 l -0.65341,-1.369055 q 0.87121,-1.58686 2.5203,-2.426962 1.68021,-0.871218 3.85825,-0.871218 z m 20.50268,16.802047 v -3.36041 l -0.21781,-0.715642 v -5.880717 q 0,-1.711319 -1.02679,-2.644766 -1.02679,-0.964562 -3.11149,-0.964562 -1.40017,0 -2.76923,0.435609 -1.33794,0.435608 -2.27138,1.213481 l -1.52463,-2.831456 q 1.33794,-1.026792 3.17372,-1.52463 1.86689,-0.528954 3.85824,-0.528954 3.60933,0 5.56957,1.742435 1.99136,1.711319 1.99136,5.320648 v 9.738964 z m -5.22731,0.217804 q -1.86689,0 -3.26706,-0.622298 -1.40017,-0.653413 -2.17804,-1.773549 -0.74676,-1.151252 -0.74676,-2.582537 0,-1.400171 0.65341,-2.520307 0.68453,-1.120137 2.20916,-1.773549 1.52463,-0.653413 4.04494,-0.653413 h 4.82281 v 2.582536 h -4.54278 q -1.99135,0 -2.67588,0.653413 -0.68453,0.622298 -0.68453,1.555745 0,1.057907 0.8401,1.680205 0.84011,0.622298 2.33362,0.622298 1.43129,0 2.55142,-0.653413 1.15125,-0.653413 1.64909,-1.929124 l 0.65342,2.333618 q -0.56007,1.4624 -2.02247,2.271387 -1.43129,0.808988 -3.64045,0.808988 z m 12.25726,-0.217804 V 20.467637 h 3.88936 v 23.087257 z m 7.37219,0 V 26.939537 h 3.88936 v 16.615357 z m 1.96024,-19.353469 q -1.08902,0 -1.80466,-0.684527 -0.68453,-0.684528 -0.68453,-1.64909 0,-0.995677 0.68453,-1.64909 0.71564,-0.684528 1.80466,-0.684528 1.08902,0 1.77355,0.653413 0.71564,0.622298 0.71564,1.58686 0,1.026792 -0.68453,1.742435 -0.68452,0.684527 -1.80466,0.684527 z m 4.0429,19.353469 v -2.458078 l 10.2368,-12.38373 0.71564,1.337941 h -10.76575 v -3.11149 h 13.87724 v 2.458077 l -10.2368,12.38373 -0.77787,-1.33794 h 11.29471 v 3.11149 z m 26.53898,0 v -3.36041 l -0.21781,-0.715642 v -5.880717 q 0,-1.711319 -1.02679,-2.644766 -1.02679,-0.964562 -3.11149,-0.964562 -1.40017,0 -2.76923,0.435609 -1.33794,0.435608 -2.27138,1.213481 l -1.52463,-2.831456 q 1.33794,-1.026792 3.17372,-1.52463 1.86689,-0.528954 3.85824,-0.528954 3.60933,0 5.56957,1.742435 1.99135,1.711319 1.99135,5.320648 v 9.738964 z m -5.22731,0.217804 q -1.86689,0 -3.26706,-0.622298 -1.40017,-0.653413 -2.17804,-1.773549 -0.74676,-1.151252 -0.74676,-2.582537 0,-1.400171 0.65341,-2.520307 0.68453,-1.120137 2.20916,-1.773549 1.52463,-0.653413 4.04494,-0.653413 h 4.82281 v 2.582536 h -4.54278 q -1.99135,0 -2.67588,0.653413 -0.68453,0.622298 -0.68453,1.555745 0,1.057907 0.8401,1.680205 0.84011,0.622298 2.33362,0.622298 1.43129,0 2.55142,-0.653413 1.15125,-0.653413 1.64909,-1.929124 l 0.65342,2.333618 q -0.56007,1.4624 -2.02247,2.271387 -1.43129,0.808988 -3.64045,0.808988 z"
   id="text24"
   style="font-weight:600;font-size:31.1149px;font-family:Montserrat;-inkscape-font-specification:'Montserrat Semi-Bold';letter-spacing:-1.62px;fill:#425cf4;fill-opacity:1;stroke:url(#linearGradient59);stroke-width:0.9;stroke-linecap:round;stroke-linejoin:round;stroke-dasharray:none;paint-order:stroke fill markers"
   aria-label="Profissionaliza" /><circle
   style="fill:#ffd500;fill-opacity:1;stroke:none;stroke-width:2.53385;stroke-linecap:round;stroke-linejoin:round;stroke-dasharray:none;stroke-opacity:1;paint-order:stroke fill markers"
   id="path36"
   cx="20.191402"
   cy="23.810976"
   r="5.9375" /><circle
   style="fill:#fbbc05;fill-opacity:1;stroke:none;stroke-width:1.89372;stroke-linecap:round;stroke-linejoin:round;stroke-dasharray:none;stroke-opacity:1;paint-order:stroke fill markers"
   id="path36-1"
   cx="33.855614"
   cy="15.65717"
   r="4.4375" /><circle
   style="fill:#fbbc05;fill-opacity:1;stroke:none;stroke-width:1.38695;stroke-linecap:round;stroke-linejoin:round;stroke-dasharray:none;stroke-opacity:1;paint-order:stroke fill markers"
   id="path36-1-1"
   cx="46.236134"
   cy="19.27297"
   r="3.25" /></svg>
